<?xml version="1.0" standalone="no"?>
<!DOCTYPE svg PUBLIC "-//W3C//DTD SVG 20010904//EN"
 "http://www.w3.org/TR/2001/REC-SVG-20010904/DTD/svg10.dtd">
<svg version="1.0" xmlns="http://www.w3.org/2000/svg"
 width="1120.000000pt" height="1120.000000pt" viewBox="0 0 1120.000000 1120.000000"
 preserveAspectRatio="xMidYMid meet">
<metadata>
Created by potrace 1.11, written by Peter Selinger 2001-2013
</metadata>
<g transform="translate(0.000000,1120.000000) scale(0.100000,-0.100000)"
fill="#000000" stroke="none">
<path d="M4505 9689 c-545 -170 -1424 -444 -1954 -609 -531 -165 -966 -302
-968 -304 -3 -2 -9 -141 -15 -308 -27 -716 37 -1547 178 -2313 133 -725 372
-1480 653 -2065 l51 -105 0 1408 0 1407 3045 0 3045 0 0 -1417 1 -1418 26 50
c51 99 177 383 240 545 326 828 530 1783 609 2840 28 382 29 1349 1 1377 -3 3
-201 66 -439 140 -238 74 -1112 346 -1943 605 -830 259 -1517 472 -1525 474
-8 1 -460 -137 -1005 -307z"/>
<path d="M4150 4690 l0 -1060 -756 0 -755 0 18 -31 c132 -227 320 -500 489
-711 488 -607 1058 -1069 1745 -1414 207 -103 568 -254 609 -254 10 0 69 20
132 44 713 277 1289 649 1819 1176 322 320 597 669 837 1065 l72 120 -755 3
-755 2 0 1060 0 1060 -265 0 -265 0 0 -1060 0 -1060 -825 0 -825 0 0 1060 0
1060 -260 0 -260 0 0 -1060z"/>
</g>
</svg>
